# xmcd
#
# Track frame offsets: 
#        150
#        8397
#        17577
#        28895
#        38657
#        48152
#        58025
#        65950
#        75155
#        87165
#        96380
#        107275
#        117982
#        127567
#        137270
#
# Disc length: 1926 seconds
#
# Revision: 0
# Processed by: cddbd v1.4PL0 Copyright (c) Steve Scherf et al.
# Submitted via: ExactAudioCopy v0.90b3
#
DISCID=a707840f
DTITLE=George Jones - Classic Country
DYEAR=1900
DGENRE=Country
TTITLE0=I'm A One Woman Man
TTITLE1=Maybe Little Baby
TTITLE2=One Is A Lonely Number
TTITLE3=Rain Rain
TTITLE4=You All Goodnight
TTITLE5=Wasted Words
TTITLE6=Go Away With Me
TTITLE7=Cause I Love You
TTITLE8=Heartbroken Me
TTITLE9=Yes I Know Why
TTITLE10=Accidentally On Purpose
TTITLE11=Who Shot Sam
TTITLE12=Sweet Dreams
TTITLE13=Frozen Heart
TTITLE14=Any Old Time
EXTD=
EXTT0=
EXTT1=
EXTT2=
EXTT3=
EXTT4=
EXTT5=
EXTT6=
EXTT7=
EXTT8=
EXTT9=
EXTT10=
EXTT11=
EXTT12=
EXTT13=
EXTT14=
PLAYORDER=
